<?xml version="1.0" encoding="utf-8"?>
<!-- Generator: Adobe Illustrator 16.0.0, SVG Export Plug-In . SVG Version: 6.00 Build 0)  -->
<!DOCTYPE svg PUBLIC "-//W3C//DTD SVG 1.1//EN" "http://www.w3.org/Graphics/SVG/1.1/DTD/svg11.dtd">
<svg version="1.1" id="Layer_1" xmlns="http://www.w3.org/2000/svg" xmlns:xlink="http://www.w3.org/1999/xlink" x="0px" y="0px"
	 width="291.996px" height="81.706px" viewBox="0 0 291.996 81.706" enable-background="new 0 0 291.996 81.706"
	 xml:space="preserve">
<g>
	<g>
		<path fill="#2276A5" d="M142.014,70.231c-1.59,0.217-3.204,0.326-4.842,0.326c-4.48,0-8.605-0.91-12.376-2.73
			c-3.77-1.816-6.702-4.365-8.798-7.641c-0.892,0.168-2.325,0.254-4.3,0.254c-6.962,0-12.436-2.602-16.422-7.805
			c-3.987-5.203-5.98-11.9-5.98-20.091c0-7.756,2.035-14.219,6.106-19.385c4.07-5.168,9.503-7.751,16.296-7.751
			c7.636,0,13.52,2.391,17.65,7.173c4.132,4.781,6.197,11.436,6.197,19.963c0,12.646-4.144,21.091-12.43,25.329
			c2.625,2.891,6.985,4.336,13.08,4.336c2.24,0,4.179-0.242,5.817-0.723V70.231z M99.052,32.545c0,5.541,1.107,10.178,3.324,13.911
			c2.216,3.734,5.323,5.602,9.322,5.602c4.625,0,8.13-1.711,10.515-5.133c2.385-3.418,3.577-8.213,3.577-14.38
			c0-12.502-4.697-18.753-14.092-18.753c-4.144,0-7.287,1.675-9.431,5.022C100.123,22.163,99.052,26.74,99.052,32.545z"/>
		<path fill="#2276A5" d="M166.719,59.319v-3.252c-1.277,1.084-3.035,2.012-5.275,2.783c-2.24,0.77-4.301,1.156-6.18,1.156
			c-8.984,0-13.477-4.77-13.477-14.309V20.585h9.033v24.426c0,4.963,2.229,7.443,6.686,7.443c2.047,0,3.949-0.529,5.707-1.59
			s2.928-2.287,3.506-3.686V20.585h9.033v38.734H166.719z"/>
		<path fill="#2276A5" d="M184.369,6.168L193.4,4v43.503c0,4.77,1.422,7.613,4.266,8.527c-1.398,2.652-3.783,3.977-7.156,3.977
			c-4.094,0-6.141-2.844-6.141-8.527V6.168z"/>
		<path fill="#2276A5" d="M204.232,59.284V27.992h-4.949v-7.407h14.09v38.699H204.232z M208.893,5.59
			c1.445,0,2.68,0.512,3.705,1.535c1.023,1.024,1.535,2.259,1.535,3.704s-0.512,2.68-1.535,3.704
			c-1.025,1.023-2.26,1.535-3.705,1.535s-2.68-0.512-3.703-1.535c-1.023-1.024-1.535-2.259-1.535-3.704s0.512-2.68,1.535-3.704
			C206.213,6.102,207.447,5.59,208.893,5.59z"/>
		<path fill="#2276A5" d="M252.146,23.656l-3.867,6.757c-2.119-1.999-4.961-2.999-8.527-2.999c-3.42,0-6.125,1.139-8.109,3.414
			c-1.988,2.277-2.982,5.427-2.982,9.449c0,8.118,3.865,12.177,11.6,12.177c3.348,0,6.297-1.107,8.852-3.324l3.324,7.119
			c-2.625,1.637-4.92,2.672-6.883,3.105c-1.965,0.434-4.281,0.652-6.957,0.652c-5.973,0-10.688-1.742-14.145-5.223
			s-5.186-8.316-5.186-14.507c0-6.094,1.891-11.021,5.674-14.778c3.781-3.758,8.936-5.637,15.465-5.637
			C244.908,19.862,248.822,21.127,252.146,23.656z"/>
		<path fill="#2276A5" d="M291.236,42.698h-27.641c0.168,3.084,1.229,5.48,3.18,7.191s4.576,2.564,7.877,2.564
			c4.119,0,7.25-1.072,9.395-3.217l3.506,6.902c-3.18,2.578-7.926,3.867-14.238,3.867c-5.902,0-10.568-1.73-14-5.188
			c-3.434-3.455-5.148-8.277-5.148-14.47c0-6.094,1.883-11.032,5.654-14.814c3.77-3.781,8.291-5.673,13.568-5.673
			c5.611,0,10.117,1.675,13.512,5.022c3.398,3.349,5.096,7.612,5.096,12.791C291.996,38.784,291.744,40.458,291.236,42.698z
			 M263.92,35.905h19.008c-0.629-5.66-3.758-8.491-9.395-8.491C268.377,27.414,265.174,30.245,263.92,35.905z"/>
	</g>
	<path fill="#2276A5" d="M0,0v42.763h0.025c0.544,19.926,35.013,38.943,35.013,38.943s34.399-18.922,35.01-38.943h0.027V0H0z"/>
</g>
</svg>
