<?xml version="1.0" encoding="UTF-8" standalone="no"?>
<svg
   xmlns:dc="http://purl.org/dc/elements/1.1/"
   xmlns:cc="http://creativecommons.org/ns#"
   xmlns:rdf="http://www.w3.org/1999/02/22-rdf-syntax-ns#"
   xmlns:svg="http://www.w3.org/2000/svg"
   xmlns="http://www.w3.org/2000/svg"
   xmlns:sodipodi="http://sodipodi.sourceforge.net/DTD/sodipodi-0.dtd"
   xmlns:inkscape="http://www.inkscape.org/namespaces/inkscape"
   width="88"
   height="25"
   viewBox="0 0 88 25"
   version="1.1"
   id="svg3855"
   sodipodi:docname="button-m.svg"
   inkscape:version="0.92.4 (5da689c313, 2019-01-14)">
  <metadata
     id="metadata3861">
    <rdf:RDF>
      <cc:Work
         rdf:about="">
        <dc:format>image/svg+xml</dc:format>
        <dc:type
           rdf:resource="http://purl.org/dc/dcmitype/StillImage" />
        <dc:title></dc:title>
      </cc:Work>
    </rdf:RDF>
  </metadata>
  <defs
     id="defs3859" />
  <sodipodi:namedview
     pagecolor="#ffffff"
     bordercolor="#666666"
     borderopacity="1"
     objecttolerance="10"
     gridtolerance="10"
     guidetolerance="10"
     inkscape:pageopacity="0"
     inkscape:pageshadow="2"
     inkscape:window-width="1920"
     inkscape:window-height="1017"
     id="namedview3857"
     showgrid="false"
     inkscape:zoom="8.2419264"
     inkscape:cx="13.560008"
     inkscape:cy="30.807205"
     inkscape:window-x="-8"
     inkscape:window-y="-8"
     inkscape:window-maximized="1"
     inkscape:current-layer="layer2" />
  <path
     d="m 76.218011,3.1227834 c 4.658493,0 8.434236,4.0754242 8.434236,9.1036486 0,5.027247 -3.775743,9.10465 -8.434236,9.10465 -4.657574,0 -8.433318,-4.077403 -8.433318,-9.10465 -9.17e-4,-5.0282244 3.774827,-9.1036486 8.433318,-9.1036486 z m 0,-1.6335338 c -1.341997,0 -2.645495,0.2839638 -3.872909,0.8449653 -1.185249,0.5402238 -2.24858,1.3149403 -3.161578,2.3004034 -0.912998,0.9854631 -1.629831,2.1331913 -2.131246,3.4125124 -0.518833,1.3248324 -0.782832,2.7307903 -0.782832,4.1802903 0,1.449502 0.263082,2.854479 0.782832,4.180304 0.501415,1.27932 1.218248,2.427048 2.131246,3.412511 0.912998,0.985463 1.976329,1.758201 3.161578,2.299415 1.227414,0.560012 2.530912,0.844965 3.872909,0.844965 1.342915,0 2.645496,-0.283964 3.873827,-0.844965 1.184332,-0.541214 2.247663,-1.313952 3.161578,-2.299415 0.912998,-0.985463 1.62983,-2.133191 2.131246,-3.412511 0.518833,-1.325825 0.782832,-2.730802 0.782832,-4.180304 0,-1.4495 -0.263083,-2.8554579 -0.782832,-4.1802903 C 84.883246,6.7678096 84.166414,5.6200814 83.253416,4.6346183 82.339501,3.6491552 81.27617,2.8744387 80.091838,2.3342149 78.86259,1.7732134 77.560009,1.4892496 76.218011,1.4892496 Z"
     id="Shape"
     inkscape:connector-curvature="0"
     style="fill:#ffffff;fill-rule:nonzero;stroke-width:1.18896496" />
  <path
     d="M 75.473204,17.607892 H 73.127458 V 6.4363536 h 3.532828 c 1.378664,0 2.124829,0.3799376 2.448412,1.2189664 0.161333,0.4264404 0.234666,1.043839 0.234666,1.9293671 0,1.7403819 -0.293333,2.3894429 -1.304414,2.9108669 l 1.743496,5.111348 h -4.309242 z"
     id="path3842"
     inkscape:connector-curvature="0"
     style="fill:#ffffff;fill-rule:nonzero;stroke-width:1.18896496" />
  <g
     inkscape:groupmode="layer"
     id="layer2"
     inkscape:label="back"
     transform="translate(0,5)">
    <rect
       id="Rectangle-path"
       x="0.17255986"
       y="-4.7425098"
       width="64.923943"
       height="24.735521"
       style="fill:#2276a5;fill-opacity:1;fill-rule:nonzero;stroke-width:1.1915127" />
    <rect
       style="fill:#010101;fill-rule:nonzero;stroke-width:1.18896496"
       id="rect4898"
       x="65.07814"
       y="-4.6745815"
       width="22.860043"
       height="24.735521" />
  </g>
  <g
     inkscape:groupmode="layer"
     id="layer3"
     inkscape:label="text"
     transform="translate(0,5)">
    <text
       id="Quality-with-qulice"
       font-size="8"
       font-weight="bold"
       x="1.0252259"
       y="5.0030618"
       transform="scale(0.96177391,1.0397454)"
       style="font-style:normal;font-variant:normal;font-weight:bold;font-stretch:normal;font-size:6.58137655px;font-family:Verdana-Bold, Verdana;-inkscape-font-specification:'Verdana-Bold, Verdana, Bold';font-variant-ligatures:normal;font-variant-caps:normal;font-variant-numeric:normal;font-feature-settings:normal;text-align:start;writing-mode:lr-tb;text-anchor:start;fill:#fffcfc;fill-opacity:1;stroke-width:0.79568827">
      <tspan
         sodipodi:role="line"
         id="tspan3948"
         x="1.0252259"
         y="5.0030618"
         style="font-style:normal;font-variant:normal;font-weight:bold;font-stretch:normal;font-size:6.58137655px;font-family:Verdana-Bold, Verdana;-inkscape-font-specification:'Verdana-Bold, Verdana, Bold';font-variant-ligatures:normal;font-variant-caps:normal;font-variant-numeric:normal;font-feature-settings:normal;text-align:start;writing-mode:lr-tb;text-anchor:start;fill:#fffcfc;fill-opacity:1;stroke-width:0.79568827">Quality controlled</tspan>
      <tspan
         sodipodi:role="line"
         id="tspan3950"
         x="1.0252259"
         y="13.229782"
         style="font-style:normal;font-variant:normal;font-weight:bold;font-stretch:normal;font-size:6.58137655px;font-family:Verdana-Bold, Verdana;-inkscape-font-specification:'Verdana-Bold, Verdana, Bold';font-variant-ligatures:normal;font-variant-caps:normal;font-variant-numeric:normal;font-feature-settings:normal;text-align:start;writing-mode:lr-tb;text-anchor:start;fill:#fffcfc;fill-opacity:1;stroke-width:0.79568827">by Qulice</tspan>
    </text>
  </g>
  <g
     inkscape:groupmode="layer"
     id="layer1"
     inkscape:label="shield"
     transform="translate(0,5)">
    <path
       d="M 67.75867,-3.3850692 V 8.3495839 h 0.0063 c 0.137961,5.4679091 8.879478,10.6863891 8.879478,10.6863891 0,0 8.723763,-5.192411 8.878715,-10.6863891 h 0.0069 V -3.3850692 Z"
       id="path3902"
       inkscape:connector-curvature="0"
       style="fill:#2276a5;stroke-width:0.26380321" />
  </g>
</svg>
