<?xml version="1.0" encoding="UTF-8" standalone="no"?>
<svg
   xmlns:dc="http://purl.org/dc/elements/1.1/"
   xmlns:cc="http://creativecommons.org/ns#"
   xmlns:rdf="http://www.w3.org/1999/02/22-rdf-syntax-ns#"
   xmlns:svg="http://www.w3.org/2000/svg"
   xmlns="http://www.w3.org/2000/svg"
   xmlns:sodipodi="http://sodipodi.sourceforge.net/DTD/sodipodi-0.dtd"
   xmlns:inkscape="http://www.inkscape.org/namespaces/inkscape"
   width="77px"
   height="20px"
   viewBox="0 0 77 20"
   version="1.1"
   id="svg3855"
   sodipodi:docname="button-s.svg"
   inkscape:version="0.92.4 (5da689c313, 2019-01-14)">
  <metadata
     id="metadata3861">
    <rdf:RDF>
      <cc:Work
         rdf:about="">
        <dc:format>image/svg+xml</dc:format>
        <dc:type
           rdf:resource="http://purl.org/dc/dcmitype/StillImage" />
        <dc:title></dc:title>
      </cc:Work>
    </rdf:RDF>
  </metadata>
  <defs
     id="defs3859" />
  <sodipodi:namedview
     pagecolor="#ffffff"
     bordercolor="#666666"
     borderopacity="1"
     objecttolerance="10"
     gridtolerance="10"
     guidetolerance="10"
     inkscape:pageopacity="0"
     inkscape:pageshadow="2"
     inkscape:window-width="1920"
     inkscape:window-height="1017"
     id="namedview3857"
     showgrid="false"
     inkscape:zoom="16.483853"
     inkscape:cx="42.140699"
     inkscape:cy="10.801563"
     inkscape:window-x="-8"
     inkscape:window-y="-8"
     inkscape:window-maximized="1"
     inkscape:current-layer="layer3" />
  <path
     d="M66.7038911,2.3208 C70.7795545,2.3208 74.0829109,5.616 74.0829109,9.6816 C74.0829109,13.7464 70.7795545,17.0432 66.7038911,17.0432 C62.6290297,17.0432 59.3256733,13.7464 59.3256733,9.6816 C59.3248713,5.616 62.6282277,2.3208 66.7038911,2.3208 L66.7038911,2.3208 Z M66.7038911,1 C65.5297921,1 64.3893762,1.2296 63.3155247,1.6832 C62.2785644,2.12 61.3482673,2.7464 60.549495,3.5432 C59.7507228,4.34 59.1235743,5.268 58.6848911,6.3024 C58.2309703,7.3736 58,8.5104 58,9.6824 C58,10.8544 58.2301683,11.9904 58.6848911,13.0624 C59.1235743,14.0968 59.7507228,15.0248 60.549495,15.8216 C61.3482673,16.6184 62.2785644,17.2432 63.3155247,17.6808 C64.3893762,18.1336 65.5297921,18.364 66.7038911,18.364 C67.8787921,18.364 69.0184059,18.1344 70.0930594,17.6808 C71.1292178,17.2432 72.0595148,16.6184 72.8590891,15.8216 C73.6578614,15.0248 74.2850099,14.0968 74.7236931,13.0624 C75.1776139,11.9904 75.4085842,10.8544 75.4085842,9.6824 C75.4085842,8.5104 75.1784158,7.3736 74.7236931,6.3024 C74.2850099,5.268 73.6578614,4.34 72.8590891,3.5432 C72.0595148,2.7464 71.1292178,2.12 70.0930594,1.6832 C69.017604,1.2296 67.8779901,1 66.7038911,1 L66.7038911,1 L66.7038911,1 Z"
     id="Shape"
     fill="#FFFFFF"
     fill-rule="nonzero" />
  <path
     d="M66.0522673,14.0328 L64,14.0328 L64,5 L67.0908317,5 C68.2970099,5 68.9498218,5.3072 69.2329208,5.9856 C69.3740693,6.3304 69.4382277,6.8296 69.4382277,7.5456 C69.4382277,8.9528 69.181594,9.4776 68.2970099,9.8992 L69.8223762,14.032 L66.0522673,14.032 L66.0522673,14.0328 L66.0522673,14.0328 Z"
     id="path3842"
     fill="#FFFFFF"
     fill-rule="nonzero" />
  <g
     inkscape:groupmode="layer"
     id="layer2"
     inkscape:label="back">
    <rect
       id="Rectangle-path"
       x="0.17255986"
       y="0.0040543582"
       width="56.801243"
       height="20"
       style="fill:#2276a5;fill-opacity:1;fill-rule:nonzero;stroke-width:1.00214291" />
    <rect
       style="fill:#010101;fill-rule:nonzero"
       id="rect4898"
       x="56.957741"
       y="0.058978181"
       width="20"
       height="20" />
  </g>
  <g
     inkscape:groupmode="layer"
     id="layer3"
     inkscape:label="text">
    <text
       id="Quality-with-qulice"
       font-size="8"
       font-weight="bold"
       x="0.88386387"
       y="8.0482645"
       transform="scale(1.0004491,0.9995511)"
       style="font-style:normal;font-variant:normal;font-weight:bold;font-stretch:normal;font-size:5.53538322px;font-family:Verdana-Bold, Verdana;-inkscape-font-specification:'Verdana-Bold, Verdana, Bold';font-variant-ligatures:normal;font-variant-caps:normal;font-variant-numeric:normal;font-feature-settings:normal;text-align:start;writing-mode:lr-tb;text-anchor:start;fill:#fffcfc;fill-opacity:1;stroke-width:0.66922772">
      <tspan
         sodipodi:role="line"
         id="tspan3948"
         x="0.88386387"
         y="8.0482645"
         style="font-style:normal;font-variant:normal;font-weight:bold;font-stretch:normal;font-size:5.53538322px;font-family:Verdana-Bold, Verdana;-inkscape-font-specification:'Verdana-Bold, Verdana, Bold';font-variant-ligatures:normal;font-variant-caps:normal;font-variant-numeric:normal;font-feature-settings:normal;text-align:start;writing-mode:lr-tb;text-anchor:start;fill:#fffcfc;fill-opacity:1;stroke-width:0.66922772">Quality controlled</tspan>
      <tspan
         sodipodi:role="line"
         id="tspan3950"
         x="0.88386387"
         y="14.967493"
         style="font-style:normal;font-variant:normal;font-weight:bold;font-stretch:normal;font-size:5.53538322px;font-family:Verdana-Bold, Verdana;-inkscape-font-specification:'Verdana-Bold, Verdana, Bold';font-variant-ligatures:normal;font-variant-caps:normal;font-variant-numeric:normal;font-feature-settings:normal;text-align:start;writing-mode:lr-tb;text-anchor:start;fill:#fffcfc;fill-opacity:1;stroke-width:0.66922772">by Qulice</tspan>
    </text>
  </g>
  <g
     inkscape:groupmode="layer"
     id="layer1"
     inkscape:label="shield">
    <path
       d="m 59.302906,1.10162 v 9.488099 h 0.0055 c 0.120701,4.421109 7.768558,8.640531 7.768558,8.640531 0,0 7.632325,-4.198344 7.767891,-8.640531 h 0.006 V 1.10162 Z"
       id="path3902"
       inkscape:connector-curvature="0"
       style="fill:#2276a5;stroke-width:0.22187637" />
  </g>
</svg>
